<svg xmlns="http://www.w3.org/2000/svg" viewBox="0 0 1987 1024"><path d="M199 284.8c-.2.6-.3 103-.2 228v227h310.5l.4-455.8H354.7l-155.7 1zm423 4.3c-29.4 5.3-46.8 24-48 51-1.3 27.6 11.7 39.2 56.5 50.4 41 10.2 49.2 16.3 50.7 37.4 4 57-94 62.6-108.6 6.2-2.3-9-2.7-8.5-7.3 8.6-4.8 18-5.4 16 6.5 21.8 34.6 17.2 64.3 19.6 92.7 7.6 30-12.7 44-47.7 30.2-75-7.5-14.8-16.7-19.4-56.7-28.5-32.7-7.5-44.3-16.2-45.7-34.5-2.4-33 28.5-49.8 64.8-35 15 6 24.6 15.6 28.4 28.2 2 6.2 1.7 6 2.5 4.5.4-.7 2.2-6.8 4-13.7l3.4-12.4-2-1.5c-14-11.4-50-19-71.6-15zm168-.1c-92.5 17.6-93.6 170.5-1.4 189.2 66.6 13.5 118-61 92.5-133.6C867.5 306 828 282 790 289zm591.3 1.6l-25 57.8L1327 417c-11.6 27-24.8 50.8-30 54.2-4.4 3-2.2 3.3 17 3.3 19 0 20.5-.2 17-2.4-13.7-9-12.3-20.7 7.7-68.4l7.5-17.8 29-.2 29.8 1.2c.4.8 5.3 13 11 27.4 15.6 40 17.4 50 10 56.4l-3.5 3.4c0 .3 44 .3 45.8 0 .4-.1-1.6-2.4-4.3-5-8.3-8.3-11.6-15.5-58.4-130.3l-24-48zM908.2 293c0 .6 1.5 2.5 3.3 4.3 6.5 6.3 6.3 3 6.3 79.6 0 84.4-.8 90.7-13 95.7-4.3 1.8-1.7 2 23.8 2 26.3 0 27.5-.2 21.6-2.8-10.8-4.8-12.5-12-12.5-53.5v-29.8h23.2c57.4-.2 86.6-15.4 88.7-46.3 1.7-24.2-14.4-40.3-47.8-47.8-10-2.2-93.6-3.4-93.6-1.3zm156 .4c-.3.8-.1 1.5.7 1.8 8.2 2.7 9 9.2 9 76.7 0 78.5-1.6 92.5-11.4 100.6-3.5 3-3 3 9.8 2.5h20.3c12.7.5 12.5.6 7.8-4-7-7-8.2-15-8.2-59v-31.3h99.3l.6 2.2c.8 3.2-.3 61.5-1.3 70.2-1 9-4.5 17-8.4 19.2-2.8 1.7-2.8 3.2.1 3a557 557 0 0 1 38 .2c3 1.8 3-1 .2-3.8-9.3-8.7-9.8-14-9.8-95.6 0-76.4-.3-73 6-79 4.7-4.5 4-5.2-4.7-4a122 122 0 0 1-25.6-.6c-4.5-.8-5 1-1 4.4 5.8 5 6 7 6.5 43.4l-.6 33-1 1.8-98-.4-.2-31c-.3-37.6.6-43.5 6.6-47 4.3-2.5 2.7-4-4-3.5-8 .6-21.5.5-26.3-.2-3.3-.5-4-.3-4.5.8zm180-.7c-.3.5.6 1.7 2 2.8 7.5 5.5 7.6 6.7 7.2 84.3-.4 79-.7 81.6-9.7 91.3l-3.2 3.5h22l22-.2c0-.1-1.5-1.5-3.3-3.2-8-7.2-8.4-11.2-9-88.6-.5-78.3-.1-83 7.3-86.8 5.8-3 2.8-3.6-14-2.8-4.3.2-10.7 0-14.2-.3-4.2-.4-6.5-.4-6.8.2zM500 512V730H208.6V293.7H500V512zM822 296.5c28 9 42.5 39.7 42.5 90 0 56-21.7 87.2-60.4 87.2-38.3 0-58.8-28.5-60.2-84-1.8-70 30.4-108.6 78-93.2zm161.7 3c26.6 2.7 39 12 42.3 31 3.5 21-5.5 38.4-23.7 46-14 6-43.8 8.4-61.3 5.2l-3.3-.6-.2-40 .2-41.2c.5-1.3 34-1.4 46-.2zm401.2 36.8l12 29.3 4.5 13c-.7 1.8-50.8 1.7-51.5 0-.3-.7 4.7-12.7 11-26.7l13.4-30c2.5-5.7 2-6.2 10.6 14.4zm-1064 5.5c-46 8.6-72.7 54.4-62.6 107.5 7.7 40.5 38.2 69 78.8 73.4 7 .8 6.5-2.5 6.5 40.7v38.3l18.6-.5.8-77.7 8-1c34.3-4.8 59-22.4 72.4-51.6 14.3-31 12.4-70.4-4.6-96.4-28-43-82-45-93.2-3.4-1.2 4.6-1.4 13.2-2 73.6l-1 69c-.3.3-3.3-.4-6.5-1.6-31-11.4-45.7-39-45.8-85.8 0-44.3 14.2-72.8 39.4-79 2-.5 2.3-1 2.3-3.4 0-3.2-2.2-3.5-11.2-1.8zm68.7 21.4c34 12.8 46 90 19.3 126-8.8 12-37.3 27-45 24.2-1-.4-1.2-8.5-1-68.6l.3-68 2-4.2c4.6-10.2 13.4-13.5 24.5-9.4zM855.7 545c-33.2 6.6-54 35.5-46.3 64.6 5 19.3 18.2 27.6 60.4 38 40.4 10 50.3 20.6 45.2 48-9.3 50-100.4 42-109-9.7-1-6.4-1.7-5-7 15-4 15-4.7 13.4 8.6 20 63 31 127 8 126.7-45.5-.2-27-13.7-40.4-48.4-48-34-7.3-43.3-11-51.7-19.8-14.7-15.5-7-47 13.2-54.8 28.3-10.7 67.8 6.5 73 32 1.3 6 2.8 2.6 8-17.7 1.8-7 2.5-6.3-9.3-12-19.2-9.5-45.4-13.7-63.6-10zM572 549c0 .6 1.2 2 2.6 3 6.4 4.7 6 1 6 80 0 82.6-.2 85-8.8 94.4l-3.2 3.8c0 .2 9.7.3 21.5.3 22.4 0 23-.1 19.2-3-8.5-6.3-8.6-7.8-9-90.4-.4-81.8-.6-78.8 6-84.8 5-4.5 4.2-4.8-8.8-3.7l-11 .5c-3.6-1-14.7-1.3-14.7-.2zm57.7-.5c-1 1-.7 1.7 3.6 4.4 5 3 7.8 8.5 9.2 17a2011 2011 0 0 1-1.1 137.4c-2.6 10.6-6.3 16.6-12.8 20.6-4.4 2.7-3.5 3 17.2 2.8 21-.1 21.5-.1 17-3-6-3.6-10.2-12.7-12-25-1-8-1.3-132.2-.2-132.2 1 0 22.5 27 41.6 52.6 18.8 25.2 59.3 82.6 72.4 102.8 6 9.4 7.8 11 9 7.5.3-1 1-37.3 1.2-80.5.5-69.7.7-79.2 2-84 2.3-8.6 5.7-13.8 10.7-16.4 6-3 2.4-4.8-8.4-3.8h-16.5l-10-.3c-2 .5-2.6 3-.8 3 4.5 0 11.6 11.4 14.4 23 1.5 6.3 2.7 114.5 1.3 114.5-.4 0-2.5-2.5-4.8-5.6l-64.5-86.7-31-44-2-3.5-12 .1a197 197 0 0 1-17.4-.5c-3-.3-5.7-.3-6 0zm486.2.4c0 .5 1.5 2.2 3.2 4 6.2 6 6 3.3 5.6 82.3-.4 81-.6 83.3-9.3 91.8-1.6 1.5-2.8 3-2.8 3.2a257 257 0 0 0 21.5.5c22.4 0 23-.1 19.2-2.8-8.5-6-8.6-8-9-89-.4-82-.6-80 5.7-86 5-5 4.4-5.2-8.4-4l-15.3.1c-9-1-10.3-1-10.3.1zm220.2.3c0 .8 1 1.8 2 2.3 2.3 1 5 4.8 6.4 9 .6 2 1 22.4 1.4 65.2.6 74.8 1 78 14.3 92.3 20.8 22.8 81.6 24 102 2 15-16.2 17.2-27.6 18-95 .8-62 1-63.3 10.8-71.8 5.7-5 5.7-5-8.5-4.7-7 .1-15.3-.1-18.6-.4-7-.8-8 .5-3 3.6 11.8 7.3 13.7 17.2 13.6 73.3 0 59.5-3 76-16.7 90-19.2 19.5-59 19.4-77.2-.2-14.5-15.7-16.4-27-16-96.3.4-58.4 1-61.8 9.3-66.8 1.6-1 2.8-2 2.6-2.7-.3-1-2-1-19.6-.6a148 148 0 0 1-14.7-.4c-5.3-.5-6-.4-6 .8zm335 .4c-.2.4 1 2 2.8 4 6.4 6.3 6.2 3 6.2 79 0 81.7-.6 87-11 93.8-2 1.3-3.3 2.7-3 3 .8 1.3 137.4 1 138.4-.3 1-1.2 9.3-33 9.3-35.4 0-2.7-1.3-2-4 2.5-12 18.5-37 27.3-78 27.3-29.5 0-30.5-1-32.2-34l-.6-35.4.3-17.8 17.4-.3c39.8-.6 58 4.8 62.5 18.4 2 6.3 2.5 2.7 2.5-21 0-26-.2-27-3.8-19-5.8 13-13.8 15-55.4 14.7l-23.2-.2v-73h29.8c44.2 0 55.4 4 68.8 23.8 2.6 4 4.2 5.6 4.3 4.7a321 321 0 0 0-6.6-30.9l-1-4H1733c-33.8-.1-61.6.1-62 .5zM955 550.6a442 442 0 0 0-6.9 31.4c.2.5 2.3-1.8 4.7-5 13.7-18.5 52.2-29.3 60.2-17 2.3 3.5 2.3 128 0 142.6-2.6 16.8-5.6 23.2-11.7 25.3-6.4 2.2-3.5 2.5 21.8 2.5l25.3-.3c-.2-.2-2-1.5-4.3-3-10-6.6-10.3-8.5-10.7-92.5-.5-84-1.3-78.4 12.3-79.2 20-1.2 42.4 9.3 51 23.6 2.2 3.8 4 4.7 3.2 1.7l-3.3-14.7-3.3-14.7-.4-2H1024l-69 1zm222 .4c-1.5 5-7 30.4-7 31.2.2.5 1.6-1 3-3.2a59 59 0 0 1 51.8-23.4c12.4.8 11.8-2 12 66 .1 87.2-2 102.3-13.8 106.4-6.2 2-3 2.5 22 2.5l25.3-.3a82 82 0 0 0-4.3-2.9c-10-6.5-10.3-9-10.8-93.2-.4-83-1.3-77.6 12-78.5 20-1.3 41.6 8.6 51.3 23.7 1.6 2.4 3 4.3 3.2 4 .3-.3-3.6-19-6.4-30.2l-1-3.5H1246l-69 1.5zm334.5 0l-6.8 29.8c-.7 3 .7 2.2 3.3-2 11.8-18.7 51-31 61.3-19.3 1.6 1.8 1.7 3.2 2 62 .4 87.5-1.2 100.5-13 106-2.4 1-4.3 2.3-4.3 2.5 0 .2 11.5.4 25.7.4 27 0 27.7-.1 22.3-2.5-11-5-12.3-15.7-12.3-104.3 0-71.3-.7-67.5 13-68 19.8-1 40 8.3 49.7 22.5 2 3 4 5.3 4 4.8.2-.7-5.4-27-7-32-.4-1.4-4.4-1.5-69-1.5l-69 1.5zM428.8 642.5c-.7.6-1.6 2-2 3-.6 1.8-.5 2 .6 1 1.3-1 5.7 9 4.4 10.4-.3.3 0 1 .6 1.8 2.4 2.8 3.4 7.7 1.7 9-1.3 1-1 1 3.4 1 3.6 0 4.5-.2 3-.8-1.4-.6-2.7-3.5-6-13.6l-4.4-13c-.1 0-.7.5-1.5 1zm-158 1.7c-4.2 4.4-2 9 6 13 6.5 3.2 7.4 7.7 2 10.7-2.8 1.6-6.7 0-8.4-3.5l-1.3-2.6v2.6c0 5.2 9.6 6.8 13.2 2.2 4-5 2-10-5-13-6.7-3-8.6-8.4-3.7-10.4 1.2-.5 1.4-.8.5-.8-.7 0-2 .8-3 2zm6.6-1.7c.2.1 1.3 1 2.6 2.2l2.3 2v-2c0-1.7-.5-2-2.6-2.2-1.4-.1-2.4-.1-2.3 0zm23.4 1.3c-11.3 7-7.5 23.4 6 25.3l3.3.5-3.2-1c-11-3.6-13-21.3-2.6-25.5 1-.4 1.2-.7.4-.7-.7 0-2.4.7-3.8 1.5zm9.2-.8c9 3.7 10.6 19.2 2.7 24-1.5 1-2.2 1.6-1.5 1.6 4.2 0 10-7.5 10-13 0-5.7-6.5-13.7-11-13.5-1.7 0-1.7.1-.1.7zm22.6.1c1.8.7 2 1 2 12.4s-.1 11.7-2 12.4c-1.4.6-.5.7 3.5.7 3.5 0 4.6-.2 3.3-.6-2.3-.6-3.7-22-1.5-24.6.7-1 .1-1-3-1-3.3 0-3.7.2-2.2.8zm10.7.4c5 2.2 6 7.5 2 11.2l-2.5 2.4 2.6-.7c7.6-2.2 7.7-11 .2-13.2-4.3-1.2-5.3-1-2 .3zm17.5-.4c1.8.7 2 1 2 12.7 0 11.8 0 12-2 12.3-1 .2.4.4 3 .4s4.3-.2 3.5-.4c-1.2-.3-1.4-1.4-1.4-6.5v-6h15.7v5.8c0 5.3-.2 6-2 6.6-1.4.6-.6.7 3 .7 2.7 0 4.4-.2 3.6-.4-3.4-1-3.4-24.5 0-25.4.8-.2-1-.4-3.6-.4s-4.3.2-3.5.4c1.8.5 2.5 3 2 7.8l-.3 3.7-15.3.5v-5.4c0-5 .2-5.5 2-6.2 1.4-.6.5-.7-3.5-.7s-5 .2-3.5.8zm38 0c3.4 1.4 3.4 24.4 0 25-1 .2.7.4 3.6.4 4 0 5-.1 3.5-.7-1.8-.7-2-1-2-12.4s.1-11.7 2-12.4c1.4-.6.5-.7-3.5-.7-3.8 0-5 .2-3.6.7zm25.6 9.3c-2.4 8-5.7 15-7.3 15.6-1.3.5-.8.7 2.4.7 2.3 0 3.5-.2 2.7-.4A9 9 0 0 1 424 658c.4 0 .5-.5.3-1s0-2 .5-3.4.7-2.5.5-2.7-.6.5-1 1.6zm-116.6 33.2c-.8 3-.6 3.4 1.4 1.5 1-1 2.8-1.8 4-1.8 2.7 0 2-.5-1.8-1-2.6-.4-3-.2-3.5 1.3zm19-1c-3 .6-3.2.6-.7.7 1.8.1 3.2.8 4.3 2.3 1.6 2 1.7 2 1.7.5 0-2-.8-4.4-1.5-4.2a230 230 0 0 1-3.8.7zm33.5-.6c0 .1-.4 1.4-.8 3l-.8 2.8 2.3-2.2c1.3-1.2 3.2-2.2 4.3-2.2s1.8-.1 1.6-.3c-.4-.3-6.6-1.4-6.6-1zm18.6.6c-2.6.5-2.8.6-1 .7 1.3.1 3.2 1 4.5 2.4l2.2 2.3-.5-2c-.3-1-.5-2.5-.5-3s-.3-1-.6-1l-4 .7zm48.2-.2c-.2.3-.6 1.6-1 2.8l-.5 2.2 2-2c1.2-1.2 3-2 4.3-2 1.2 0 2-.1 2-.3-.7-.6-6.5-1.2-6.8-.7zm19 .2c-2.5.4-2.8.6-1 .7 1.4.1 3 1 4.4 2.8 1.2 1.5 2 2 1.7 1.2s-.5-2.4-.5-3.5c0-1-.3-2-.6-2l-4 .7zm-217.4.8a35 35 0 0 1-1.1 24.9c-1.3.5-.4.7 3.6.7 4 0 5-.2 3.5-.7a48 48 0 0 1-.9-24.6c.8-.8.2-1-2.7-1-2.6 0-3.3.2-2.5.8zm19 1a36 36 0 0 1-.2 23.6c-1.8 1.3-1.7 1.3 1.7 1.3 3.2 0 3.4-.1 2.3-1.3a52 52 0 0 1-.6-20.7c.4.2 4.6 5.3 9.3 11.2l8.6 10.8.4-12.4c.3-9.8.7-12.6 1.7-13.2 1-.6.2-.8-2.5-.8-3.6 0-3.6 0-2 1.3 1.8 1.3 3 18.6 1.2 18.6a96 96 0 0 1-8.3-9.9c-7.2-9.2-8-10-10.6-10H246l1.7 1.7zm37.4.3c-3.8 4-1.8 9.2 4.7 12 7.3 3 9.3 11.7 2.8 11.7-.5 0-1 .3-1.4.7-1 1.7 4-.3 5.3-2.2 3.8-5 1.5-11-5-13-6.2-2-8.4-6-5-9.5 1-1 1.3-1.7 1-1.7s-1.5 1-2.5 2zm8-.8c.7.6 1.7 1.6 2.3 2.2 1 1 1 .8 1-1 0-1.6-.4-2-2.3-2.2-2-.1-2 0-1 1zm24.4 11.5v12.6l-2 .6c-1.3.4.2.6 3.7.5 3.2 0 5-.2 4-.4-2-.4-2-.4-1.7-13l.2-12.8h-4V697zm25.5-11.5c2.6 2 1.6 24-1 24.7-1.3.4.1.6 3.7.6 3.2 0 5.2-.2 4.6-.4-2.8-1-3.3-3-3.3-13.2 0-8 .3-10.4 1.3-11.4 1.2-1.2 1-1.3-2.6-1.3-3.4 0-3.7.1-2.5 1zm26.6 11.5v12.6l-2 .6c-1.3.4.2.6 3.7.5 3.2 0 5-.2 4-.4-2.5-.5-3-2.4-2.6-15 .3-10.4.2-10.8-1.4-10.8s-1.7.6-1.7 12.6zm24.3-11.6c.6.6 1 4 1 9 0 9.3 1 13.7 3.6 15.3 2.3 1.4 7.5 2.4 6.8 1.3-.3-.4-1.2-.8-2-.8-4.7 0-8-22.2-3.5-24.8 1-.7.5-.8-2.6-1s-4 .2-3 1zm18.7.3c1 1 1.3 3.2 1.3 10 0 9.8-1 12.6-4.5 14-1.4.6-2 1-1 1 4.4.1 6-3.4 6.5-14 .4-8.7.6-10.2 2-11.3 1.5-1 1.3-1.2-2-1.2-3.2 0-3.4.1-2.2 1.3zm23.5 11.5c.2 12.8.2 12.8-1.7 13-1 .2.5.4 3.5.4 4 0 5-.1 3.5-.7-2-.8-2-1-1.7-13.2l.2-12.4h-4l.2 12.8zm26.2-11.5a42 42 0 0 1-.6 24.3c-1.3.5 1.4.8 8.3.8h10.2l.8-2c1.3-3.4 1-3.7-1.6-1-2.5 2.5-8.8 3.4-11.6 1.6-1.5-1-2.3-10.3-1-11.2.7-.4.7-1 0-1.8-.6-.7-.8-3.2-.6-6.6l.3-5.4h-2.8c-2.5 0-2.7.1-1.5 1.3zm12.5-.3c1 .5 2.5 1.7 3.5 2.6 2 1.8 2.5.8 1-2-.6-1-1.7-1.6-3.5-1.6-2.4 0-2.5.1-1 1zm-1.2 9.4c0 .7-1.2 1.6-2.7 2-2.6.8-2.6.8-.5 1 1.2 0 2.6.7 3 1.5.7 1.2.8.7 1-2 0-2-.2-3.5-.4-3.5-.2 0-.4.6-.4 1.2zm-190.4 11.6c-.1 2.6 3.6 5.2 6 4.3.7-.3.6-.4-.3-.5-1.4-.1-4.4-3-5-5-.3-.7-.5-.1-.5 1.2z" fill="#f2f0f8"/><path d="M209 223.4c-12 .7-25.4 2.2-29.4 3.2L169 229a145 145 0 0 0-59.9 28.5 124 124 0 0 0-17.1 17.6c0 .5-.3 1-.7 1.2-1.7.7-10 15.3-12.8 22.2-.4 1-1 2.7-1.5 3.5s-.7 2.4-.7 3.5-.4 2.3-.8 2.5-.8 1.6-.8 3-.4 2.6-.8 3-.8 2.7-.8 5.4-.4 5-.8 5.4c-1 .7-1.2 378-.1 378 .4 0 1 2.3 1.2 5.2.6 7.3 1.4 11.4 2.3 11.4.4 0 .7 1 .7 2.4s.7 3.8 1.6 5.6l4.3 9 3.4 6.6 14.7 17.7c7.8 7.6 23 18.3 26 18.3.7 0 1.3.3 1.3.6 0 .6 2.2 1.7 10.8 5.4a132 132 0 0 0 25.3 8c1 0 2 .3 2.3.8.3.4 2.8 1 5.6 1.3a27 27 0 0 1 6.4 1.3c.7.4 6 1.2 12 1.7 14 1.2 1605.5 2 1610 .8a110 110 0 0 1 12.8-1.6l22.4-3.4a42 42 0 0 1 5.8-1.5c27-5.3 58.5-23.6 71.6-41.5l3-3.8c.8-1 1.4-2 4-6.5.6-1 1.2-2 1.5-2.3 1-.8 4-8 4-9.3 0-.7.5-1.7 1-2.2.6-.5 1.6-3.4 2.2-6.4s1.4-5.6 1.8-6 .7-2.2.7-4.5.4-4.3.8-4.6c.6-.3.8-65.3.8-192l-.8-192c-.5-.3-.8-2.2-.8-4.2a15 15 0 0 0-.7-5.1c-.4-.8-1.2-3-1.7-5.2a47 47 0 0 0-2.1-6.2c-.6-1.4-1.4-3.5-1.7-4.8s-1-2.5-1.2-2.7-2-2.8-3.2-5.8a39 39 0 0 0-3.6-6.4c-.6-.6-2.3-3-4-5.2-11.4-16.7-39-35-63.3-42.2-2.7-.8-6-1.8-7-2.2a69 69 0 0 0-6.2-1.6l-10-2a148 148 0 0 0-14.5-2.1 62 62 0 0 1-11.2-1.8c-2.8-1-1572.2-1.6-1591.3-.5zM510.4 512v228.5h-312l-.2-227.7.2-228.7c.3-.8 32-1 156.3-.8l156 .2V512zM652 288c12.4 1.5 25.7 6 37.2 12 8 4.4 8 4 4.3 17.2-5 18.6-6 20-8.3 12.2-6-20.7-25.2-33.2-52-34-24-.7-37.3 10-39.8 31.7-2.5 22.5 10.4 33 51.4 41.8 43.2 9.2 58.7 24.2 56.4 54.5-4 52.5-66.5 73-128.6 42.4-13.7-6.8-13-4.8-8.8-20.5l4-15.2c1.7-6.3 3.7-5.2 5.8 3.3 13.4 54.7 111 50.2 107-5-1.5-21-9.8-27-51-37-25.3-6.2-35-10.5-44.5-19.5-22.4-21.4-12.7-63 18-77.8 14.7-7 28-8.8 49.2-6.2zm162.5-.5c66.7 10.5 97.2 96 56.2 157.2-30 44.8-95.5 48.2-128.8 6.7-54.2-67.7-6-176.3 72.6-164zm572.7 4.5l55.2 134c13 32 16.2 37.7 24 44.4 6 5.2 5.6 5.4-21.3 5.2-26-.1-27-.4-21-4.3 8.4-5.5 7-15-8.7-55.4l-10-25.5-1.4-3h-57.3l-5.3 12.6-8.6 20.5c-12.2 29.2-12.8 42.6-2.2 50.3 7 5 6.4 5.2-18 5-21-.2-21.3-.4-15.3-6.4 7.2-7.2 18-27.5 31.7-59.6l49-113.7c4.7-10.7 6-11.2 9-4zm-383.4 1.6c30.7 7 46.8 23 46.8 46.3 0 33-31.3 50-91.8 50h-21l.4 29.6c.6 40.3 2 46.4 11.8 51.2 4.6 2.3 6 4.8 3 5.5a346 346 0 0 1-51.4-1.9c-.2-1 1-2 3.5-3.2 11-5.3 12-14.7 12-97 0-70.3 0-70-7.7-77-6.4-6-7.2-5.8 42.4-5.4l51.8 2.2zm70.8-1.5c4.4.6 9 .5 16-.2 12.7-1.3 16 .7 9 5.4-6 4-6.2 5.4-6.5 43l-.3 33h97.8v-31.4c0-37-.2-38.7-5.5-43.6-6.7-6.3-5-7.6 8.3-6.2a66 66 0 0 0 16.9.1c12-1.4 13.6 0 7.3 6-6 5.8-5.8 3.4-6 69-.4 84 1 98.6 11 105 5.4 3.6 3.2 4-20.6 4-25 .1-27-.4-20.2-4.7 7.3-4.6 9-15 9-57.5v-32.5l-97.3.4v34c.1 43.2 1 49 8.7 55.2 6 5 5.5 5-20 5-24.8 0-25.3-.1-20.4-4.4 9.8-8.6 10.6-16.8 10.3-100.2-.3-72.8 0-70-6.4-74.4-2.4-1.7-3.3-4-2-5.3.7-.7 3.6-.7 11 .3zm208 .6c1 1 .7 1.4-1 2.5-9 6.2-8.5 2.4-8 86.7.4 82.5.3 81.7 8.4 88.8 5.4 4.7 5.6 4.7-19.6 4.8-25.5.1-24.7.4-19.3-5.6 8.7-9.6 9-14.2 9-93.8l-6-78.8c-6-5.6-5.6-5.7 16.2-5.7 14.8 0 19.3.3 20.2 1zM209.5 512v217.3h289.8V294.5H209.5V512zm580-215.3c-30.8 8.3-46.7 42-44.8 94.8 2 53.8 21.6 80.7 59.4 80.7 40.5 0 61.4-33 59.3-93.5-1.5-46.6-16.2-74-43.6-81.5a80 80 0 0 0-30.3-.5zm153.4 3.5l-4.8.3V340c0 37 .1 39.7 1.5 40 9 3 37.5 1.8 54.4-2 23.8-5.4 35.6-25.5 30-51-4.8-22-29.7-30.4-81.2-27zm432 22.6l-12.8 29-11.6 26 25 .2h25.2c.2-.2-3.3-8.8-7.7-19.3l-11.6-28c-4.5-11-5-11.5-6.4-7.8zM395.3 341c27.2 4.8 52.8 35.7 57.5 69.7 7.8 56.2-25 103.4-77.6 112l-10 1.7-2 .4-.2 38.7-.2 38.7-10 .2h-10.3c-.1-.1-.4-17.7-.6-39l-.4-39-7.5-1c-54.8-7.8-88.8-60.4-76.7-118.5C265 368 296.2 340 329.2 340h3.7v3.3c0 3-.3 3.5-2.3 4.2-26 10.5-36.5 28.4-39 67-2.6 39.6 6.5 69.8 26.3 86.3 4.3 3.6 17.3 10.4 21.5 11.2l2.7.5v-55.8c0-86.6.8-92.3 13.3-105 10.2-10.4 22.6-13.7 40-10.6zm-19.8 22.2c-4 1.3-8.7 6.5-10.3 11.6-1.3 4-1.4 10.7-1.4 71.2v66.6l2-.3c26.4-3.2 46.3-21.3 53.6-48.6 3-11 3.4-40.7.8-52.6-7-31.4-27.5-53.6-44.7-48zm515 181a124 124 0 0 1 38.4 14.6c2.5 1.6 1.7 6-5 28.2-1.3 4.3-3 4-4-.8-5.5-22.2-28.3-36-57.5-34.8-21.5.8-33.3 12.4-34.2 33.5-1 21.8 9.2 30.3 46.2 38.7 29.8 6.8 38.6 10 47 17.4 21.2 18.8 18.3 57.8-5.8 77.7-27.5 22.7-66.3 23.8-108.7 3-13.5-6.6-12.8-5-9-19.6 5-19.3 5.2-20 7-20 1.7 0 2 1 3 6.6 5 33.4 59.2 51.5 90.7 30.4 15.2-10.2 21-33 12.7-49.5-5.2-10.3-12.3-13.7-44-21.5-46-11.3-60-23-60-49.5 0-39.4 35.7-62.7 83.2-54.4zM611 549c.2 1-.7 2-2.6 3-7.3 4.3-7.3 5-7 85.4.4 81.8.5 83 9.3 89.6 5.5 4.2 5 4.3-20 4.3-24.5 0-26-.3-21-4 10-7.4 11-16.7 10.6-100.5-.3-74 .3-68.3-8-75.7-4-3.5-2.4-3.8 18.6-3.8 18 0 19.7.2 20 1.5zm54.8-.6c.4.2 3 4 5.6 8.5 4.7 7.7 22.6 32 73.5 100l22.3 29.8.3-4.6c1-15.2-.5-101.7-1.7-106.8-2.8-12-8.3-21.3-13.3-22.8-2.4-.7-3-2-2.2-3.7 1-1.7 39-2 40.5-.3 1.4 1.4.2 3.2-3.3 5.2-4 2.3-7.2 7.5-9.4 15.4-1.5 5.5-1.6 9.6-2 84.4-.6 91.8-.4 90.4-8.7 77.6-8.4-13-46.8-68.3-61.7-88.8l-54-70a1724 1724 0 0 0 1.5 137.7c2.3 8 5.4 13 10 16.2 7 5 6.3 5.3-17.5 5.4-23.6.1-24.2-.1-17.2-4.8 13.3-9 13.6-11 14-87.2.4-74 0-78.7-7.3-84.3-10.3-8-10.2-8 12-7.6l18.6.8zm489.2.6c.2 1-.7 2-2.5 3-7.3 4.3-7.3 4.6-7.3 79.4 0 82.5.4 87.2 9 95 5.2 4.8 5.3 4.8-19.8 5-24.4.1-25 0-20.2-4.3 9.6-8.8 10-12.6 10-94.7l-6.2-79.7c-5.6-5-5-5.2 17.2-5.2 18 0 19.7.2 20 1.5zm222.7.3c.2 1.3-.6 2.2-2.7 3.5-8.4 5-9 8.7-9.3 64.2-.5 69.3 1.5 81.8 15.7 97a56 56 0 0 0 82.4-8.1c8-14 9.3-24 10-71.6.7-65.6-.2-70.4-15.4-83.3-3.8-3.2-2-3.6 18.2-3.5 22.7.2 23 .2 16.2 6.2-4.8 4.3-7 7.6-9 13.6-.8 2.4-1.2 16.5-1.6 53l-2 58.3c-6.7 41.8-22.2 56.4-61.8 57.7-37 1.3-59-9.3-68-32.7-5-13.2-5-14.2-5.6-81.3-.6-69.6-.2-66.2-7-70.2-2.6-1.5-3.6-3.3-2.6-4.4 1.6-1.6 42.3-.2 42.5 1.4zm-283.8.5a491 491 0 0 1 7.5 33.5c0 2.5-2.6.8-5.4-3.5-12.8-20-56.4-32.3-61-17.2-1.5 5-.5 137.7 1 146.4 2 11.4 6.3 17.6 13 19.8 5.5 1.7-.4 2.3-25.7 2.4-26 .2-26.7.1-26.5-1.5.2-1 1.4-2 3.4-2.7 11.8-4 12.4-9 12.8-95.3l.3-69.6-1.7-2.2c-2.7-3.4-7-4.2-17.6-3a55 55 0 0 0-42.7 23.4c-3 4.4-4.3 5-4.3 1.7a283 283 0 0 1 7.7-33.2c.6-.8 15.5-1 69.5-1h68.6l.8 2zm221.5-1a504 504 0 0 1 7.9 34.2c0 2.8-2.5 1.4-5.3-3-9.6-15-35.4-26.2-53.3-23-9 1.6-8.6-2.3-8.2 76 .5 87 1 90 13.7 95.4 6 2.6 2.8 3-24.5 3.2-21 .1-26.7-.1-27-1-.5-1.3 1-2.4 4-3.2 5-1.2 8.4-7.2 11-20 1-5.6 1.4-16.5 1.6-75.7l.3-69.2-1.7-2.2c-8.8-11.2-47.8 1.4-59.3 19.2-3.4 5.3-5.3 6.3-5.3 3a335 335 0 0 1 7.6-32.9 1906 1906 0 0 1 138.5-.6zm334.8.6a137 137 0 0 1 3.4 13.5 611 611 0 0 0 3.4 15c2 8-.1 8.6-5 1.2-9.4-14.5-34.5-25-53-22.3-9 1.3-8.8-.7-8.3 79.5.5 82 1 85.3 12.4 91 7 3.6 5.5 3.8-23.3 4-26 .2-26.7.1-26.4-1.5.2-1 1.4-2 3.4-2.7 12.2-4.2 14-19.8 13.7-109.7-.3-67 1.2-62.4-19-60.5-19.4 1.8-33.4 9-42 22-3.8 5.6-5.8 7-5.8 3.7 0-2.2 6.4-30 7.5-32.8l.8-2h68.7l69.5 1.5zm149 13c6 24.4 5.6 29-1.7 18-12.5-19.2-24.3-23.4-68-24l-28.8-.4v72.4l26.7-.4c39.7-.7 43.3-1.7 50-15 4.6-9 4.8-8.2 5 20.4.2 28-.2 30.2-4.2 21-5.8-13-16.2-16.5-53-17l-24.7-.3.4 34.2c.6 50 .5 50 24.4 51 40.3 1.8 68.8-7 82.6-25.3 4.8-6.4 7-7.5 7-3.4 0 2.8-7.8 33-9.2 35.7a1385 1385 0 0 1-140.6-.2c0-1 1.4-2.5 3.5-4 10.4-7 11.7-18.6 11.3-102-.3-65-.1-62.7-6.5-69.2-6.4-6.6-10.4-6.2 60-6l62.3.2 3.5 14zm-1363.7 91c3.6 11 4.5 12.8 6.4 13.7 3.7 1.8 2.5 2.6-3.6 2.6-5.5 0-7.6-1-4.5-2.2 1.3-.5 1.2-1.6-.6-6.3-1-2.8-8.3-3.5-9.7-.8-2 3.6-2 6.6-.1 7 3.2.8.8 2.2-3.8 2.2-4.8 0-6-1.4-2.8-3 1.7-.8 5.2-8.7 8.6-19.6 1.3-4 3-6 5.4-6.4.2 0 2.3 5.6 4.6 12.6zm-152-9.8c0 1 .2 2.6.5 3.6.7 2.8-1.5 2.4-3.2-.6-2-3.3-6.8-3.6-8.2-.5-1.4 3 .3 5 5 6.7 5.3 1.8 7.5 4.5 7.5 9.3 0 6-5.6 10-11 7.8l-3.8-1.2c-1.5-.2-1.7-.5-1.7-4.6 0-4 2-4.6 2.8-1 1 5 7.8 6.5 9.8 2 1.3-3-.8-5.8-6-8-7-3-9-9.2-4.5-13.6 3-3 12.8-3 13 0zm34 2c6.8 7.3 6 18-2 22.6-13 8-28-7.4-19.3-20 5-7.6 15.4-9 21.2-2.5zm31.2-1.7c6.8 5 3 13.3-6.3 14.2l-4.2.4v4c0 3.6.3 4.2 2 4.8 3.8 1.4 2.2 2.5-3.7 2.5-5.8 0-8.3-1.6-4-2.7 1.6-.4 1.7-1 1.7-11.3v-11l-2-.8c-4.3-1.6-1.2-2.7 6.8-2.3 6.2.3 8.2.7 10 2zm21.7-1c0 .7-.7 1.2-1.7 1.2-1.5 0-1.7.6-1.7 5v5h14v-4.6c0-4-.2-4.7-1.7-5-4-1-1.7-2.7 3.7-2.7s7.7 1.7 3.7 2.7c-1.6.4-1.7 1-1.7 11.3v11l2 .8c3.5 1.3 1.5 2.5-4.2 2.5-5.4 0-7.6-1.7-3.7-2.7 1.4-.4 1.7-1 1.7-5.5v-5h-14v5.3c0 4.6.2 5.3 1.7 5.7 3.8 1 1.5 2.2-4 2.2-4.6 0-5.8-.3-5.8-1.2 0-.7.7-1.2 1.7-1.2 1.6 0 1.7-.6 1.7-11.3 0-10.6-.1-11.3-1.7-11.7-4-1-1.6-2.7 4-2.7 4.6 0 5.8.3 5.8 1.2zm38 .2c.2.6-.4 1-1.4 1-1.7 0-1.7.4-1.7 11.6 0 11 .1 11.6 1.7 11.6 1 0 1.7.6 1.7 1.2 0 1-1.3 1.2-6.3 1.2-6 0-8.7-1.6-3.8-2.3 1.7-.3 1.8-.6 1.8-11.8V644h-2c-2 0-2.6-.8-1.5-2 1-1 11.3-.2 11.6 1zm-106.2 3c-8 8-1.2 24.3 8.8 21.3 7.6-2.3 8.8-16 2-21.4-3.2-2.5-8-2.4-10.7.2zm36.3-.8c-1.4 3.7.1 10 2.4 10.3 3 .3 6.3-2.6 6.3-5.4 0-4-7.5-8.2-8.8-5zm89.5 3.4l-1.7 4.4c-.6 1.5-1 3-1 3s1.5.3 3.4.3c3.7 0 3.7.4 1.2-6.6-1-2.5-1-2.7-1.7-1.2zM297 684c.1.1.3 1.6.4 3.3.3 3.8-1 4.8-2.5 1.7-1.8-4-7.6-4.4-8.8-.5-.8 2.6.3 4 4.3 5.6 6 2.3 8.5 4.8 8.5 8.7 0 7.2-5 11-11.4 9a20 20 0 0 0-4.3-1.1c-.7 0-1.2-.5-1.2-1l.2-4c.2-3.7 2-3.8 3-.2 2 6.8 11.5 5.2 9.8-1.6-.4-1.5-1.7-2.6-5-4-9.2-4-11-12.4-3.4-15.7 2-1 9-1 10.2-.1zm35.4 1c1.4 5 0 8-2 4-1.2-2.2-3.6-3.2-6.7-2.7-3.5.5-3.3 23 .2 23 1 0 1.6.6 1.6 1.3 0 1-1 1.2-6 1-5.6-.2-8-1.5-4-2.2 1.6-.3 1.7-.8 1.7-11.8V686h-3c-2.8 0-5.5 1.8-6.4 4.2-.8 2.4-1.6-.2-1-3.6l.5-3.6h12.4c11.7 0 12.4.1 12.8 1.7zm52.2 2c.7 4.7 0 5.2-2.6 2-1.7-2.2-2.7-2.7-5.4-2.7h-3.3l.2 11.4c.2 11 .3 11.4 2 11.6 5 .7 1.8 2.6-4.3 2.6s-9.3-2-4.3-2.6c1.8-.3 2-.6 2-11.6l.2-11.4H366c-2.7 0-3.6.5-5.4 2.7-2.6 3.4-3.5 2.6-2.2-2l1-3.5H384l.5 3.6zm66.6-.3c.8 3.3-.4 6.6-1.4 3.8-1-2.5-3.6-4.2-6.4-4.2h-3v11.5c0 11.3 0 11.5 2 11.8 4 .6 1 2-4.3 2s-8.5-1.3-4.3-2c1.8-.3 2-.5 2-11.8V686h-3c-2.2 0-3.3.6-4.7 2.5-1 1.4-2.2 2.5-2.6 2.5-.7 0-.2-6 .6-7.4.2-.3 5.7-.5 12.3-.5h12l.8 3.3zM236.8 685c0 .7-.7 1.2-1.7 1.2-1.6 0-1.7.6-1.7 11.6s.1 11.6 1.7 11.6c1 0 1.7.6 1.7 1.3 0 1-1 1.2-6 1-5.5-.2-8-1.5-4-2.2 3.3-.5 3.4-23.3.1-23.3-1.6 0-2.7-1-2-2a19 19 0 0 1 11.8.7zm16-.1a283 283 0 0 1 7.7 9.6l6.6 8.5.2-6.5c.3-8-.1-10-2.4-10.5-3-.8-.8-2.2 3.4-2.2 4 0 5.8 1.7 2.8 2.8-1 .4-1.2 2.6-1.2 13l-.8 12.4a85 85 0 0 1-9.3-10.7l-8.5-10.7-.2 8.8c-.2 8-.1 9 1.5 10 2.3 1.8 1.3 2.5-3.5 2.5-4.2 0-5.7-1.8-2.3-2.7 3.2-.8 2.3-23-1-23-1 0-1.6-.6-1.6-1.2 0-1.6 7-1.7 8.4-.1zm98.8-.2c.3.5-.2 1-1.2 1.3-2.7.7-2.7 23.4 0 23.4 1 0 1.6.4 1.4 1-.6 1.7-12.2 2-12.2.2 0-.8.8-1.3 2-1.3h2V686h-2c-1.3 0-2-.5-2-1.2 0-1.5 11-1.8 12-.4zm51 .4c0 .7-.7 1.2-1.7 1.2-1.6 0-1.7.6-1.7 9.6 0 10.5.5 12.2 4 13.4 7 2.5 9.6-.7 10-12.7l.3-9.4-2.2-.8c-3.3-1.3-1.7-2.5 3.3-2.5 4.5 0 7 1.4 4 2.2-1.4.4-1.7 1.4-2 9.8-.7 13.5-4.3 18-13 16.6-7.2-1.2-9-5-9-18 0-7.4-.1-8-1.7-8.4-3.4-1-.6-2.2 4.7-2.2 4.2 0 5.3.3 5.3 1.2zm77.7.6c2.4 6.4 1.4 7.5-2.8 3-2-2-3-2.5-6.4-2.5h-4v4.8c.3 5.6 3.8 7.5 5.8 3.2 1.6-3.4 2.4-2.5 2.4 2.8 0 5-1 6.6-2 3.3-1-3.6-5.7-1.8-6 2.3-.5 7.3 6.5 10 11.8 4.4 4-4.2 5.3-3.5 3.2 1.7l-1.3 3.3-11-.2c-9.7-.2-14.2-1.3-8.8-2.2 2.6-.4 2.6-22.4 0-23-1-.2-1.7-1-1.7-1.6 0-2.3 19.7-1.6 20.6.7z" fill="#052a49"/></svg>
