<svg id="eLjaEmurJcC1" xmlns="http://www.w3.org/2000/svg" xmlns:xlink="http://www.w3.org/1999/xlink" viewBox="0 0 1987 1024" shape-rendering="geometricPrecision" text-rendering="geometricPrecision"><path d="M199.087,284.803c-.214.566-.298,103.118-.179,227.889l.209,226.851h310.476l.417-455.778h-155.263c-123.45,0-155.347.214-155.66,1.038Zm422.977,4.327c-29.359,5.33-46.83,23.899-48.081,51.117-1.277,27.64,11.709,39.224,56.462,50.381c40.973,10.218,49.244,16.309,50.729,37.366c4.014,56.969-94.002,62.557-108.632,6.19-2.325-8.952-2.742-8.46-7.297,8.584-4.804,17.983-5.435,15.862,6.468,21.768c34.639,17.188,64.331,19.617,92.706,7.586c30.014-12.727,44.088-47.704,30.183-75.011-7.516-14.754-16.671-19.354-56.675-28.469-32.727-7.456-44.341-16.219-45.687-34.46-2.429-32.955,28.549-49.756,64.793-35.141c14.987,6.041,24.634,15.603,28.449,28.191c1.883,6.214,1.734,5.946,2.533,4.525.392-.7,2.245-6.845,4.123-13.661l3.408-12.389-1.903-1.545c-14.083-11.426-49.949-18.956-71.578-15.032Zm168.069-.05c-92.457,17.595-93.585,170.548-1.396,189.206c66.556,13.467,118.135-61.057,92.457-133.599-13.651-38.569-53.317-62.791-91.061-55.607Zm591.27,1.61c-.671,1.61-11.883,27.63-24.908,57.818-13.03,30.193-26.333,61.042-29.562,68.558-11.644,27.064-24.788,50.754-30.094,54.231-4.362,2.856-2.171,3.284,17.024,3.308c19.091.025,20.462-.164,17.074-2.384-13.651-8.947-12.33-20.68,7.69-68.404l7.471-17.799l29.006-.219c26.984-.204,29.061-.114,29.781,1.242.427.8,5.32,13.144,10.869,27.426c15.588,40.108,17.367,50.014,10.124,56.442-1.917,1.704-3.487,3.229-3.487,3.393c0,.273,44.142.268,45.811,0c.378-.06-1.575-2.375-4.347-5.141-8.311-8.311-11.555-15.549-58.434-130.335-21.987-53.839-21.793-53.456-24.018-48.136Zm-473.16,2.33c.005.606,1.47,2.524,3.269,4.262c6.513,6.319,6.254,3.04,6.254,79.626c0,84.4-.849,90.664-12.956,95.681-4.337,1.793-1.719,2.017,23.79,2.017c26.274,0,27.466-.154,21.584-2.757-10.844-4.794-12.548-12.071-12.548-53.536v-29.796l23.184-.065c57.366-.154,86.58-15.39,88.746-46.278c1.694-24.242-14.356-40.322-47.764-47.843-9.91-2.235-93.56-3.403-93.56-1.311Zm155.888.437c-.323.844-.07,1.54.651,1.783c8.226,2.732,8.991,9.235,9.016,76.7.03,78.503-1.555,92.472-11.376,100.569-3.542,2.921-3.005,3.06,9.751,2.529c5.693-.238,14.823-.243,20.288-.01c12.677.541,12.543.611,7.819-4.113-7.138-7.138-8.216-14.873-8.226-59.025l-.01-31.256h99.322l.551,2.206c.81,3.214-.293,61.479-1.321,70.242-1.053,8.937-4.54,16.945-8.356,19.2-2.827,1.674-2.757,3.229.134,2.991c4.958-.407,37.332-.248,38.032.184c2.851,1.759,3.04-1.123.248-3.76-9.275-8.743-9.801-13.894-9.801-95.612c0-76.357-.258-72.949,5.966-78.935c4.729-4.545,3.999-5.181-4.724-4.148-6.304.75-19.9.422-25.588-.611-4.496-.815-4.933,1.023-1.043,4.401c5.777,5.022,6.075,6.989,6.547,43.362.288,22.603.139,31.624-.551,32.92l-.954,1.778-98.046-.427-.219-31.013c-.263-37.6.556-43.477,6.552-47.018c4.312-2.548,2.722-3.989-3.87-3.517-7.993.571-21.54.452-26.299-.233-3.284-.477-4.054-.333-4.496.815Zm179.907-.686c-.288.467.641,1.704,2.062,2.752c7.471,5.494,7.571,6.652,7.183,84.285-.392,78.91-.676,81.573-9.672,91.334l-3.194,3.462h21.853c12.022,0,21.857-.094,21.857-.209s-1.475-1.54-3.279-3.169c-8.013-7.243-8.405-11.162-8.902-88.647-.502-78.324-.109-83.024,7.273-86.839c5.767-2.986,2.841-3.562-14.133-2.807-4.327.194-10.715.045-14.197-.333-4.158-.447-6.508-.392-6.85.169ZM500.074,511.863v218.162h-291.435v-436.325h291.435v218.162ZM821.856,296.522c28.017,9.011,42.528,39.706,42.498,89.909-.03,55.915-21.699,87.182-60.431,87.182-38.345,0-58.782-28.464-60.212-83.868-1.808-70.088,30.446-108.567,78.145-93.222Zm161.731,2.98c26.582,2.707,39.09,11.873,42.309,30.988c3.517,20.889-5.489,38.36-23.681,45.935-14.053,5.852-43.765,8.375-61.266,5.196l-3.313-.601-.214-40.138c-.119-22.081-.04-40.61.179-41.177.492-1.287,33.929-1.436,45.985-.204Zm401.159,36.84c3.929,9.563,9.379,22.727,12.106,29.259c2.727,6.527,4.759,12.399,4.516,13.04-.676,1.759-50.839,1.734-51.514-.025-.253-.656,4.665-12.667,10.924-26.701c6.259-14.029,12.27-27.521,13.358-29.98c2.519-5.688,2.141-6.205,10.611,14.406ZM320.823,341.856c-46.06,8.634-72.701,54.405-62.552,107.464c7.749,40.496,38.221,68.866,78.806,73.372c7.009.78,6.488-2.474,6.503,40.734l.015,38.32l18.629-.467.825-77.743l7.869-1.103c34.252-4.824,58.876-22.394,72.368-51.648c14.317-31.038,12.444-70.351-4.59-96.446-27.988-42.87-82.105-44.872-93.192-3.448-1.227,4.585-1.441,13.159-1.853,73.635-.258,37.64-.745,68.712-1.078,69.05-.333.333-3.274-.378-6.527-1.58-31.018-11.45-45.727-39.04-45.757-85.825-.03-44.266,14.207-72.82,39.438-79.094c1.927-.482,2.275-.998,2.275-3.373c0-3.174-2.181-3.537-11.177-1.848Zm68.692,21.45c34.137,12.777,45.985,90.073,19.334,126.128-8.778,11.868-37.287,27.148-45.081,24.157-1.098-.422-1.212-8.549-.984-68.578l.263-68.106l1.922-4.247c4.595-10.154,13.418-13.517,24.545-9.354ZM855.671,544.932c-33.203,6.572-53.928,35.464-46.338,64.599c5.022,19.279,18.181,27.56,60.411,38.017c40.411,10.005,50.322,20.551,45.215,48.116-9.265,50.044-100.405,41.902-108.94-9.727-1.058-6.403-1.724-4.992-7.064,14.972-4.029,15.077-4.744,13.418,8.589,19.98c62.955,30.973,127.052,7.953,126.709-45.508-.174-27.014-13.666-40.377-48.365-47.903-33.874-7.347-43.283-10.944-51.713-19.796-14.734-15.464-7.099-47.123,13.214-54.798c28.345-10.705,67.813,6.527,73.088,31.907c1.252,6.026,2.802,2.628,8.057-17.665c1.843-7.119,2.464-6.309-9.265-12.136-19.155-9.518-45.384-13.666-63.6-10.059Zm-283.566,3.974c0,.631,1.152,1.997,2.568,3.045c6.413,4.739,6.125.974,6.125,79.964c0,82.577-.238,85.115-8.808,94.409-1.759,1.908-3.199,3.616-3.199,3.79c0,.179,9.687.323,21.525.323c22.449,0,23.02-.089,19.155-2.946-8.495-6.284-8.644-7.759-8.996-90.425-.353-81.777-.571-78.781,6.135-84.812c4.958-4.461,4.222-4.764-8.808-3.651-5.514.472-10.482.715-11.033.541-3.577-1.118-14.664-1.297-14.664-.238Zm57.748-.546c-1.138,1.143-.651,1.734,3.557,4.352c4.923,3.06,7.839,8.46,9.16,16.949c1.485,9.533.482,130.668-1.138,137.369-2.563,10.621-6.259,16.562-12.821,20.63-4.411,2.737-3.532,2.881,17.178,2.827c21.033-.055,21.52-.139,16.959-2.956-5.902-3.646-10.213-12.722-11.922-25.096-1.113-8.038-1.257-132.203-.154-132.203c1.093,0,22.473,27.009,41.614,52.572c18.842,25.166,59.308,82.611,72.443,102.834c6.13,9.448,7.849,10.879,9.001,7.491.348-1.028.884-37.257,1.192-80.52.502-69.745.72-79.243,1.952-83.868c2.285-8.609,5.653-13.77,10.7-16.403c5.986-3.13,2.375-4.774-8.356-3.8-4.843.437-11.753.457-16.453.04-4.456-.392-8.942-.517-9.965-.278-1.977.462-2.623,2.891-.77,2.891c4.451,0,11.634,11.421,14.396,22.886c1.52,6.314,2.722,114.548,1.272,114.548-.392,0-2.548-2.514-4.794-5.589-5.569-7.62-38.261-51.554-64.539-86.725-20.501-27.436-26.467-35.906-31.053-44.102l-1.977-3.537-12.051.129c-6.627.07-14.471-.139-17.431-.472-2.961-.328-5.663-.318-6.001.03Zm486.205.377c0,.477,1.451,2.245,3.229,3.934c6.17,5.872,5.996,3.328,5.643,82.279-.363,81.022-.596,83.337-9.344,91.816-1.56,1.515-2.841,2.961-2.841,3.214c0,.248,9.687.457,21.525.457c22.424,0,22.995-.084,19.21-2.782-8.45-6.016-8.644-7.958-9.056-89.119-.412-81.966-.551-79.904,5.728-85.865c5.112-4.853,4.371-5.211-8.44-4.083-4.938.432-11.57.462-15.32.07-8.937-.934-10.333-.924-10.333.079Zm220.229.293c0,.75.939,1.793,2.091,2.32c2.265,1.033,4.913,4.814,6.388,9.125.641,1.863,1.093,22.399,1.441,65.23.616,74.842,1.093,77.932,14.262,92.343c20.804,22.767,81.583,24.033,101.866,2.126c15.002-16.209,17.168-27.62,18.003-94.886.765-61.941.974-63.337,10.76-71.767c5.738-4.938,5.703-4.958-8.475-4.689-6.945.134-15.325-.07-18.629-.442-6.999-.795-8.132.522-3.12,3.621c11.828,7.307,13.661,17.153,13.641,73.277-.02,59.487-3.095,76.009-16.731,89.859-19.155,19.453-59.11,19.374-77.192-.154-14.52-15.688-16.403-27.073-15.931-96.332.392-58.355.874-61.782,9.339-66.78c1.61-.949,2.782-2.146,2.608-2.658-.318-.939-2.007-.989-19.622-.571-4.784.114-11.396-.06-14.699-.392-5.266-.522-6.001-.427-6.001.77Zm334.986.363c-.238.387,1.038,2.131,2.832,3.885c6.443,6.294,6.19,3.035,6.185,79.05-.005,81.677-.626,86.963-10.973,93.823-1.942,1.287-3.318,2.687-3.06,3.105.785,1.272,137.429,1.008,138.417-.268.954-1.227,9.334-33,9.334-35.394c0-2.697-1.321-1.913-4.128,2.464-11.878,18.509-37.073,27.342-78.006,27.342-29.493,0-30.491-1.058-32.155-34.137-.487-9.687-.775-25.618-.636-35.409l.253-17.799l17.387-.253c39.8-.576,57.992,4.769,62.473,18.36c2.086,6.309,2.524,2.673,2.524-21.003c0-25.856-.229-26.989-3.815-18.996-5.807,12.946-13.84,15.067-55.384,14.664l-23.184-.224v-72.86h29.806c44.207,0,55.424,3.875,68.772,23.76c2.618,3.895,4.158,5.559,4.327,4.67.238-1.217-3.701-19.597-6.622-30.913l-1.068-4.138-61.424-.214c-33.78-.114-61.613.104-61.852.487ZM955.048,550.57c-1.197,3.651-7.104,30.72-6.865,31.435.164.487,2.275-1.788,4.699-5.052c13.691-18.47,52.16-29.304,60.237-16.969c2.295,3.502,2.295,127.995,0,142.635-2.633,16.82-5.579,23.184-11.704,25.28-6.413,2.196-3.452,2.538,21.843,2.538c14.078,0,25.449-.144,25.275-.318-.174-.179-2.096-1.48-4.277-2.901-10.064-6.557-10.288-8.48-10.74-92.502-.457-84.032-1.326-78.434,12.27-79.223c20-1.157,42.443,9.27,50.883,23.641c2.23,3.79,3.964,4.675,3.244,1.654-.243-1.023-1.739-7.64-3.328-14.694-1.585-7.059-3.075-13.671-3.313-14.699l-.427-1.863h-68.732c-54.251,0-68.796.219-69.065,1.038Zm221.942.413c-1.495,4.913-7.119,30.427-6.865,31.177.169.497,1.57-.959,3.115-3.234c10.427-15.39,31.112-24.759,51.758-23.442c12.354.785,11.838-2.091,11.883,66.079.06,87.177-1.903,102.318-13.775,106.401-6.19,2.126-3.08,2.474,22.036,2.474c14.078,0,25.454-.144,25.28-.318-.174-.179-2.101-1.48-4.277-2.901-10.059-6.547-10.333-8.932-10.765-93.237-.427-83.148-1.267-77.634,11.972-78.483c20.139-1.292,41.614,8.644,51.286,23.725c1.56,2.439,3.025,4.252,3.249,4.029.343-.343-3.611-18.892-6.443-30.198l-.879-3.522h-68.563c-64.579,0-68.593.084-69.01,1.451Zm334.519,0c-.318,1.143-4.138,17.943-6.771,29.806-.661,2.976.666,2.166,3.313-2.022c11.843-18.743,50.853-31.038,61.3-19.324c1.614,1.813,1.659,3.209,1.903,62.001.363,87.494-1.217,100.544-12.871,106.098-2.389,1.138-4.347,2.255-4.347,2.484-.005.224,11.545.412,25.663.412c26.984,0,27.684-.079,22.275-2.519-11.058-4.987-12.335-15.747-12.33-104.285c0-71.255-.72-67.5,13.045-68.126c19.796-.904,40.148,8.326,49.656,22.528c2.116,3.149,3.979,5.325,4.143,4.829.248-.75-5.449-27.014-6.92-31.882-.407-1.366-4.421-1.451-69.04-1.451-64.634,0-68.632.084-69.02,1.451ZM428.784,642.501c-.73.556-1.624,1.937-1.982,3.07-.571,1.798-.492,1.922.626.998c1.316-1.093,5.673,9.125,4.421,10.372-.273.278.015,1.093.641,1.813c2.434,2.802,3.378,7.68,1.714,8.897-1.321.964-.889,1.098,3.408,1.053c3.621-.04,4.451-.243,3.144-.77-1.391-.561-2.697-3.492-6.07-13.606-2.365-7.094-4.362-12.881-4.436-12.866s-.735.482-1.465,1.038ZM270.879,644.18c-4.178,4.446-2.067,9.066,5.926,12.965c6.527,3.189,7.382,7.685,2.032,10.725-2.837,1.61-6.686-.005-8.43-3.532l-1.292-2.618-.02,2.598c-.035,5.166,9.622,6.766,13.219,2.191c3.905-4.958,1.952-9.91-5.117-13.01-6.662-2.921-8.644-8.42-3.746-10.392c1.182-.477,1.371-.76.532-.79-.715-.03-2.116.81-3.105,1.863Zm6.572-1.684c.179.099,1.346,1.083,2.598,2.186l2.275,2.007v-2.007c0-1.654-.452-2.037-2.598-2.186-1.426-.104-2.449-.104-2.275,0Zm23.417,1.341c-11.316,6.9-7.481,23.388,5.882,25.28l3.313.472-3.179-1.038c-11.098-3.616-12.911-21.296-2.618-25.504c1.078-.442,1.222-.695.412-.73-.681-.025-2.399.656-3.81,1.52Zm9.195-.78c8.882,3.701,10.606,19.225,2.668,24.063-1.47.899-2.156,1.629-1.525,1.634c4.183.01,10.035-7.521,10.035-12.916c0-5.723-6.513-13.661-11.093-13.522-1.704.05-1.709.065-.084.74Zm22.558.06c1.808.725,1.863,1.093,1.863,12.394s-.055,11.664-1.863,12.389c-1.386.561-.487.745,3.522.72c3.487-.02,4.65-.233,3.308-.606-2.325-.646-3.666-22.086-1.54-24.649.745-.894.149-1.093-3.12-1.048-3.254.04-3.671.194-2.171.8Zm10.7.353c5.037,2.191,5.926,7.476,1.893,11.247l-2.524,2.355l2.603-.745c7.556-2.166,7.67-11.108.169-13.189-4.287-1.192-5.291-1.038-2.141.333Zm17.452-.353c1.813.725,1.863,1.078,1.863,12.722c0,11.758-.035,11.982-1.863,12.335-1.023.194.373.363,3.105.373s4.317-.154,3.517-.363c-1.212-.318-1.446-1.366-1.446-6.527v-6.145h15.727v5.822c0,5.261-.179,5.892-1.863,6.567-1.406.566-.646.74,3.105.705c2.732-.02,4.367-.204,3.626-.397-3.358-.899-3.378-24.5-.02-25.389.75-.204-.874-.363-3.606-.363s-4.312.169-3.517.378c1.783.467,2.469,2.976,2.126,7.774l-.263,3.661-15.315.477v-5.44c0-4.868.194-5.519,1.863-6.19c1.391-.561.512-.75-3.522-.75-4.029,0-4.913.189-3.517.75Zm37.962-.045c3.428,1.386,3.433,24.441.01,25.116-.964.189.671.368,3.631.402c3.984.045,4.898-.134,3.517-.69-1.808-.725-1.863-1.088-1.863-12.389s.055-11.669,1.863-12.394c1.396-.561.512-.75-3.517-.75-3.77,0-4.858.214-3.641.705Zm25.563,9.27c-2.399,7.879-5.713,14.948-7.307,15.593-1.346.541-.77.705,2.36.671c2.275-.02,3.487-.214,2.687-.422-2.211-.576-.392-10.189,1.927-10.189.392,0,.522-.497.293-1.103-.233-.601-.025-2.146.462-3.423.487-1.282.72-2.494.522-2.692s-.626.507-.944,1.565ZM307.669,685.585c-.83,3.1-.566,3.388,1.411,1.53c1.053-.989,2.792-1.798,3.865-1.798c2.692,0,1.853-.502-1.768-1.063-2.608-.402-3.09-.214-3.507,1.331Zm18.951-1.098c-3.11.556-3.154.601-.681.71c1.764.079,3.194.835,4.347,2.3c1.575,2.002,1.714,2.042,1.714.482c0-2.106-.825-4.362-1.535-4.203-.293.065-2.022.383-3.845.71Zm33.532-.561c0,.084-.363,1.431-.81,2.981l-.81,2.822l2.305-2.206c1.267-1.212,3.184-2.206,4.257-2.206c1.078,0,1.803-.134,1.61-.298-.373-.323-6.552-1.356-6.552-1.093Zm18.628.561c-2.648.472-2.846.616-.994.71c1.336.07,3.224,1.078,4.471,2.394l2.156,2.275-.532-2.067c-.288-1.138-.532-2.538-.537-3.105-.005-.571-.293-.984-.631-.919-.343.065-2.111.383-3.934.71Zm48.151-.154c-.174.313-.556,1.58-.854,2.817l-.537,2.245l2.042-2.042c1.167-1.162,3.005-2.037,4.287-2.037c1.232,0,2.091-.134,1.898-.298-.74-.636-6.542-1.217-6.835-.686Zm18.912.154c-2.479.442-2.752.621-1.093.71c1.401.075,3.03,1.108,4.431,2.807c1.222,1.48,1.992,2.012,1.719,1.177-.278-.835-.502-2.419-.502-3.522c0-1.098-.283-1.947-.621-1.883-.343.065-2.111.383-3.934.71Zm-217.358.795c3.015,1.908,2.091,23.596-1.058,24.863-1.326.537-.368.73,3.567.73c4.029,0,4.913-.189,3.517-.75-2.186-.874-2.951-22.563-.869-24.644.775-.775.179-.989-2.687-.979-2.603.005-3.328.238-2.469.78Zm19.066.859c2.648,2.648,2.499,21.674-.184,23.551-1.788,1.252-1.739,1.287,1.714,1.287c3.234,0,3.438-.114,2.255-1.302-1.426-1.426-2.002-21.584-.591-20.71.387.238,4.58,5.286,9.314,11.207l8.604,10.77.417-12.434c.328-9.826.671-12.598,1.654-13.214.889-.561.194-.79-2.459-.795-3.587-.015-3.646.025-1.863,1.272c1.848,1.297,2.991,18.643,1.217,18.554-.343-.02-4.093-4.491-8.336-9.935-7.188-9.235-7.908-9.905-10.556-9.905h-2.841l1.654,1.654Zm37.401.264c-3.845,4.093-1.823,9.22,4.744,12.046c7.258,3.12,9.279,11.704,2.757,11.704-.507,0-1.118.318-1.361.705-1.053,1.704,3.85-.283,5.325-2.161c3.825-4.858,1.525-10.874-4.983-13.035-6.244-2.071-8.36-6.13-4.968-9.523.909-.909,1.346-1.654.969-1.654-.373,0-1.49.864-2.484,1.917Zm8.137-.825c.681.581,1.709,1.575,2.275,2.216.864.969,1.038.82,1.038-.894c0-1.649-.447-2.086-2.28-2.211-1.932-.134-2.086,0-1.033.889Zm24.426,11.495v12.588l-2.071.576c-1.272.353.164.566,3.726.546c3.189-.015,4.938-.194,3.895-.392-1.903-.368-1.903-.383-1.659-13.139l.248-12.767h-4.138v12.588Zm25.528-11.545c2.638,1.927,1.649,23.944-1.108,24.709-1.292.363.104.581,3.726.596c3.189.005,5.236-.184,4.555-.427-2.822-1.008-3.313-2.971-3.313-13.189c0-8.107.263-10.392,1.302-11.43c1.182-1.182.944-1.302-2.643-1.302-3.368,0-3.736.149-2.519,1.043Zm26.632,11.545v12.588l-2.071.576c-1.272.353.164.566,3.726.546c3.189-.015,4.958-.194,3.934-.387-2.548-.492-2.871-2.419-2.553-15.062.263-10.392.204-10.849-1.381-10.849s-1.654.551-1.654,12.588Zm24.256-11.594c.631.631.994,3.86.998,8.902.005,9.275,1.033,13.696,3.557,15.265c2.31,1.436,7.471,2.444,6.781,1.321-.278-.447-1.202-.815-2.052-.815-4.694,0-7.864-22.25-3.532-24.773c1.128-.656.541-.849-2.648-.869s-3.88.194-3.105.969Zm18.733.308c1.018,1.013,1.302,3.184,1.302,9.895c0,9.771-.889,12.553-4.53,14.143-1.431.621-1.903,1.103-1.103,1.123c4.426.099,6.026-3.373,6.463-14.038.358-8.738.626-10.233,2.022-11.252c1.48-1.078,1.326-1.172-1.922-1.172-3.209,0-3.413.119-2.23,1.302Zm23.492,11.465c.243,12.757.243,12.772-1.659,13.139-1.043.199.522.387,3.482.422c4.068.045,4.913-.124,3.477-.705-1.888-.755-1.903-.889-1.659-13.194l.248-12.429h-4.138l.248,12.767Zm26.184-11.465c2.365,2.365,1.878,23.358-.561,24.336-1.267.512,1.376.77,8.301.805l10.164.05.805-2.121c1.311-3.443.954-3.691-1.61-1.128-2.529,2.529-8.798,3.418-11.599,1.649-1.525-.969-2.31-10.348-.934-11.202.725-.447.725-.874-.005-1.754-.606-.73-.84-3.179-.626-6.552l.343-5.385h-2.787c-2.533,0-2.673.119-1.49,1.302Zm12.479-.338c.914.507,2.494,1.679,3.522,2.603c1.987,1.803,2.489.815,1.003-1.967-.581-1.083-1.719-1.59-3.517-1.575-2.394.025-2.499.119-1.008.939Zm-1.242,9.364c0,.666-1.207,1.565-2.687,1.992-2.588.75-2.608.78-.457.854c1.232.04,2.618.725,3.08,1.52.671,1.152.849.725.869-2.067.015-1.937-.164-3.522-.387-3.522-.229,0-.417.551-.417,1.222ZM283.218,706.434c-.07,2.593,3.582,5.216,5.936,4.267.681-.273.586-.442-.268-.482-1.406-.07-4.406-3.005-5.146-5.032-.253-.686-.487-.124-.522,1.247Z" fill="#f2f0f8"/><path d="M209.052,223.379c-11.992.69-25.434,2.166-29.388,3.224-1.595.422-6.438,1.56-10.765,2.519-22.384,4.968-44.361,15.424-59.904,28.494-5.916,4.978-17.089,16.478-17.094,17.595c0,.532-.303,1.093-.671,1.242-1.684.695-10.074,15.265-12.787,22.215-.447,1.143-1.138,2.717-1.54,3.507-.402.795-.735,2.355-.735,3.472s-.373,2.26-.825,2.543c-.457.283-.83,1.585-.83,2.896c0,1.316-.373,2.618-.83,2.901-.452.278-.825,2.702-.825,5.38s-.373,5.102-.83,5.38c-1.083.671-1.152,377.956-.07,377.956.417,0,.949,2.325,1.182,5.171.601,7.268,1.426,11.386,2.29,11.386.407,0,.735,1.083.735,2.404c0,1.326.7,3.84,1.555,5.589.859,1.754,2.812,5.782,4.347,8.952c1.535,3.174,3.085,6.155,3.438,6.627c7.645,10.154,10.253,13.283,14.729,17.695c7.759,7.65,22.886,18.345,25.946,18.345.725,0,1.321.283,1.321.631c0,.576,2.156,1.664,10.76,5.43c7.566,3.308,22.449,8.013,25.345,8.013c1.033,0,2.086.338,2.345.75.253.407,2.772,1.013,5.603,1.341c2.827.328,5.713.929,6.418,1.331.7.402,6.115,1.152,12.037,1.669c14.148,1.232,1605.546,2.007,1609.918.785c1.595-.442,7.372-1.172,12.836-1.614c10.526-.854,19.612-2.225,22.354-3.368.909-.383,3.517-1.058,5.792-1.51c27.009-5.335,58.459-23.571,71.618-41.529c1.138-1.555,2.444-3.244,2.896-3.76.78-.879,1.401-1.898,3.934-6.458.571-1.028,1.247-2.052,1.505-2.28.919-.805,4.083-7.993,4.083-9.265c0-.71.492-1.699,1.088-2.196.601-.502,1.605-3.363,2.23-6.364s1.441-5.638,1.808-5.867c.368-.229.671-2.235.671-4.456c0-2.225.373-4.272.825-4.555.551-.338.83-65.259.83-192.083c0-126.818-.278-191.74-.83-192.078-.452-.283-.825-2.171-.825-4.203c0-2.027-.338-4.332-.75-5.127-.407-.79-1.187-3.115-1.729-5.161-.537-2.052-1.495-4.843-2.121-6.21s-1.381-3.512-1.674-4.769-.854-2.484-1.242-2.722c-.392-.243-1.853-2.832-3.249-5.757-1.396-2.921-3.01-5.797-3.587-6.383s-2.32-2.931-3.875-5.206c-11.371-16.656-39.021-35.101-63.327-42.24-2.732-.805-5.897-1.778-7.039-2.171-1.138-.392-3.929-1.103-6.21-1.585-2.275-.482-6.746-1.446-9.935-2.141-3.184-.695-9.707-1.619-14.486-2.057-4.784-.432-9.811-1.237-11.177-1.788-2.752-1.113-1572.194-1.649-1591.294-.541Zm301.37,288.484v228.51h-312.13l-.214-227.68c-.114-125.228-.035-228.152.184-228.719.313-.83,32.001-.998,156.276-.83l155.884.209v228.51ZM651.999,288.017c12.369,1.525,25.742,5.887,37.178,12.126c7.998,4.362,7.874,3.86,4.252,17.238-5.032,18.614-6.031,20.069-8.326,12.166-6.011-20.675-25.221-33.199-52.145-34.003-23.949-.71-37.317,9.94-39.761,31.688-2.529,22.478,10.427,33.02,51.35,41.778c43.208,9.245,58.712,24.247,56.367,54.539-4.073,52.523-66.541,73.108-128.606,42.384-13.73-6.796-12.896-4.848-8.788-20.457c1.654-6.294,3.452-13.114,3.989-15.166c1.659-6.329,3.691-5.161,5.772,3.313c13.422,54.728,110.927,50.203,107.047-4.968-1.47-20.968-9.836-27.044-51.097-37.113-25.28-6.17-35.116-10.477-44.54-19.498-22.354-21.395-12.707-62.86,18.102-77.808c14.699-7.133,28.092-8.827,49.204-6.219Zm162.49-.496c66.695,10.492,97.246,95.929,56.213,157.215-30.004,44.818-95.527,48.206-128.77,6.667-54.157-67.674-6.085-176.256,72.557-163.881Zm572.701,4.525c7.283,17.516,48.563,117.668,55.19,133.892c13.025,31.907,16.165,37.724,23.984,44.415c6.115,5.236,5.598,5.36-21.286,5.211-25.911-.144-27.064-.378-21.117-4.312c8.36-5.534,6.855-15.131-8.703-55.424-4.744-12.3-9.24-23.76-9.98-25.464l-1.351-3.105h-57.291l-5.276,12.628c-2.901,6.94-6.756,16.16-8.564,20.486-12.22,29.234-12.806,42.627-2.191,50.252c7.024,5.047,6.403,5.221-17.903,4.983-20.879-.204-21.326-.387-15.325-6.383c7.198-7.198,17.978-27.466,31.713-59.611c11.167-26.13,43.909-102.064,49.015-113.679c4.689-10.66,6.031-11.237,9.086-3.89Zm-383.375,1.55c30.725,6.945,46.835,22.856,46.835,46.253c0,32.856-31.331,49.895-91.757,49.895h-21.013l.412,29.597c.566,40.267,1.967,46.368,11.763,51.161c4.62,2.26,6.085,4.833,3.105,5.454-5.156,1.083-51.117-.601-51.365-1.878-.174-.909.979-1.952,3.522-3.184c10.859-5.256,12.027-14.674,12.032-96.938.005-70.321.035-69.999-7.72-77.097-6.408-5.862-7.188-5.762,42.423-5.425c41.549.283,43.914.383,51.762,2.161Zm70.843-1.51c4.357.571,9.101.522,15.886-.169c12.672-1.292,16.055.71,9.051,5.35-5.931,3.924-6.15,5.365-6.527,43.005l-.328,32.91h97.832v-31.42c0-36.87-.229-38.668-5.479-43.606-6.681-6.279-4.913-7.6,8.276-6.19c6.965.74,11.132.76,16.875.06c11.892-1.446,13.616-.025,7.322,6.036-5.976,5.757-5.762,3.358-6.115,68.911-.447,83.953,1.088,98.582,11.013,105.085c5.449,3.572,3.204,4.024-20.581,4.118-24.927.099-27.009-.387-20.218-4.709c7.292-4.64,8.892-14.972,8.897-57.515l.01-32.503-97.286.427.06,33.949c.075,43.223.984,49.005,8.668,55.18c6.145,4.943,5.534,5.097-19.861,5.097-24.828,0-25.33-.109-20.422-4.421c9.761-8.569,10.601-16.771,10.278-100.152-.278-72.835-.03-69.939-6.354-74.44-2.419-1.724-3.308-4.044-2.037-5.32.745-.74,3.621-.656,11.038.318Zm207.979.65c.889.914.73,1.351-.899,2.484-8.902,6.2-8.544,2.365-8.147,86.655.387,82.527.313,81.737,8.405,88.841c5.365,4.709,5.559,4.665-19.602,4.799-25.509.134-24.664.383-19.259-5.628c8.664-9.637,9.111-14.232,9.116-93.803c0-75.433.184-73.044-6.026-78.796-6.031-5.589-5.613-5.733,16.244-5.693c14.803.03,19.334.288,20.168,1.143ZM209.469,511.863v217.333h289.776v-434.666h-289.776v217.333ZM789.378,296.601c-30.759,8.296-46.656,41.932-44.808,94.797c1.883,53.834,21.624,80.654,59.353,80.654c40.481,0,61.36-32.896,59.343-93.485-1.55-46.566-16.194-73.938-43.596-81.499-7.402-2.047-23.532-2.295-30.292-.467Zm153.434,3.507l-4.764.298v39.646c0,37.029.099,39.671,1.451,40.099c9.125,2.881,37.545,1.843,54.435-1.982c23.76-5.385,35.623-25.484,30.069-50.938-4.809-22.031-29.716-30.352-81.191-27.123Zm432.053,22.633c-.661,1.56-6.423,14.575-12.806,28.916l-11.609,26.08l24.922.219c13.706.119,25.047.089,25.206-.065.154-.159-3.289-8.827-7.655-19.264-4.362-10.437-9.607-23.075-11.649-28.082-4.491-11.013-4.863-11.46-6.408-7.804ZM395.337,341.007c27.237,4.764,52.791,35.747,57.475,69.701c7.769,56.243-24.883,103.381-77.559,111.995-4.436.725-8.897,1.475-9.92,1.669l-1.853.353-.214,38.693-.219,38.693-10.139.229c-5.579.129-10.228.129-10.333,0-.099-.124-.378-17.719-.621-39.1l-.432-38.867-7.451-1.063c-54.758-7.799-88.776-60.386-76.66-118.492c7.655-36.696,38.747-64.748,71.767-64.748h3.651v3.328c0,2.856-.323,3.457-2.275,4.247-26.06,10.526-36.517,28.435-39.085,66.914-2.648,39.637,6.542,69.805,26.274,86.263c4.347,3.626,17.332,10.362,21.505,11.152l2.687.512.025-55.781c.03-86.645.75-92.308,13.333-105.09c10.238-10.397,22.568-13.661,40.044-10.606Zm-19.796,22.23c-4.049,1.292-8.678,6.532-10.253,11.599-1.282,4.138-1.411,10.71-1.411,71.206v66.65l2.071-.253c26.383-3.239,46.293-21.301,53.566-48.598c2.931-10.988,3.363-40.705.77-52.572-6.87-31.445-27.466-53.551-44.743-48.032Zm514.903,180.96c11.957,2.091,28.415,8.341,38.419,14.585c2.484,1.555,1.719,5.981-4.873,28.216-1.262,4.252-2.926,3.919-4.113-.83-5.549-22.156-28.32-35.931-57.515-34.793-21.49.84-33.308,12.404-34.242,33.511-.959,21.793,9.19,30.297,46.179,38.703c29.781,6.771,38.593,10.03,46.884,17.357c21.241,18.773,18.34,57.753-5.782,77.654-27.486,22.672-66.347,23.775-108.681,3.085-13.457-6.577-12.767-5.067-9.006-19.632c4.983-19.294,5.246-20.049,7.014-20.049c1.689,0,2.076.864,2.961,6.622c5.122,33.367,59.169,51.504,90.714,30.442c15.246-10.179,21.078-32.905,12.702-49.482-5.191-10.273-12.26-13.735-43.978-21.545-45.901-11.301-59.889-22.856-59.889-49.462c0-39.353,35.697-62.686,83.207-54.38Zm-279.587,4.709c.179.934-.735,2.042-2.603,3.14-7.268,4.292-7.317,4.863-6.955,85.358.373,81.792.487,82.944,9.25,89.626c5.519,4.213,4.992,4.322-19.955,4.277-24.525-.045-25.856-.288-21.008-3.875c10.005-7.397,10.988-16.711,10.621-100.485-.328-74.067.273-68.29-7.879-75.701-3.885-3.532-2.35-3.845,18.619-3.815c17.988.03,19.657.154,19.91,1.475Zm54.798-.616c.368.229,2.906,4.049,5.638,8.495c4.704,7.66,22.578,31.972,73.476,99.968l22.314,29.806.263-4.555c.884-15.156-.512-101.732-1.724-106.804-2.846-11.912-8.291-21.281-13.268-22.831-2.384-.745-3.135-1.997-2.225-3.701.894-1.674,38.886-1.957,40.536-.308c1.396,1.401.233,3.229-3.333,5.231-3.999,2.25-7.228,7.516-9.443,15.4-1.545,5.519-1.649,9.573-2.096,84.449-.551,91.777-.397,90.391-8.668,77.609-8.385-12.956-46.825-68.265-61.703-88.786-15.3-21.107-52.13-68.906-53.963-70.038-1.843-1.143-.402,131.11,1.5,137.672c2.295,7.918,5.444,13.09,9.881,16.219c7.114,5.012,6.254,5.276-17.461,5.365-23.586.089-24.247-.099-17.183-4.848c13.318-8.957,13.636-10.924,14.058-87.216.412-73.858-.01-78.692-7.347-84.315-10.333-7.913-10.208-7.993,12.146-7.566c9.866.184,18.236.527,18.604.755Zm489.155.616c.179.924-.71,2.027-2.479,3.07-7.273,4.287-7.297,4.555-7.297,79.422c0,82.467.442,87.177,8.972,95.08c5.181,4.799,5.276,4.779-19.836,4.868-24.356.084-24.927-.035-20.248-4.322c9.597-8.793,10-12.598,10-94.698c0-77.798.308-73.848-6.234-79.72-5.584-5.012-4.923-5.211,17.213-5.176c17.988.03,19.657.154,19.91,1.475Zm222.708.313c.184,1.272-.556,2.235-2.683,3.487-8.365,4.938-8.917,8.693-9.344,64.167-.541,69.308,1.485,81.792,15.747,97.107c21.132,22.702,67.391,18.147,82.393-8.112c7.933-13.889,9.344-24.123,9.866-71.598.72-65.647-.169-70.436-15.424-83.267-3.835-3.229-1.917-3.597,18.216-3.457c22.662.154,22.906.243,16.199,6.224-4.819,4.292-6.965,7.581-8.867,13.567-.77,2.429-1.207,16.512-1.629,52.985-.472,40.342-.844,51.305-1.967,58.34-6.701,41.847-22.25,56.382-61.772,57.724-37.108,1.267-59.085-9.324-67.952-32.732-4.992-13.189-5.062-14.217-5.628-81.26-.586-69.566-.243-66.193-7.109-70.242-2.618-1.545-3.636-3.294-2.553-4.376c1.59-1.59,42.274-.204,42.508,1.446Zm-283.814.522c.854,2.002,7.451,31.624,7.451,33.462c0,2.509-2.618.815-5.355-3.457-12.841-20.079-56.382-32.349-60.913-17.173-1.535,5.132-.546,137.702,1.088,146.445c2.136,11.411,6.259,17.62,13.149,19.806c5.459,1.734-.447,2.295-25.673,2.444-26.03.154-26.696.119-26.453-1.451.159-1.018,1.396-2.007,3.363-2.678c11.768-4.029,12.429-8.932,12.811-95.264l.313-69.581-1.749-2.221c-2.697-3.428-6.905-4.173-17.575-3.105-19.175,1.917-33.457,9.751-42.662,23.407-2.986,4.421-4.342,4.968-4.342,1.749c0-3.05,6.671-31.947,7.665-33.213.641-.81,15.529-1.033,69.452-1.033h68.632l.795,1.863Zm221.461-1.053c.666,1.078,7.859,32.319,7.869,34.172.015,2.827-2.469,1.381-5.345-3.115-9.622-15.047-35.414-26.239-53.258-23.114-9.066,1.59-8.644-2.315-8.216,76.109.477,87.023.904,90.018,13.691,95.373c6.11,2.563,2.757,2.995-24.485,3.154-20.904.124-26.706-.07-27.024-.899-.512-1.321.879-2.434,3.969-3.174c5.122-1.227,8.425-7.233,11.033-20.069c1.133-5.554,1.371-16.492,1.644-75.667l.323-69.174-1.744-2.216c-8.842-11.242-47.798,1.396-59.288,19.23-3.403,5.281-5.291,6.344-5.291,2.976c0-2.538,6.542-30.968,7.581-32.945.879-1.684,137.508-2.315,138.542-.641Zm334.782.64c.417.795,1.937,6.85,3.378,13.452s2.976,13.353,3.413,14.997c2.126,8.067-.109,8.624-4.898,1.217-9.369-14.481-34.46-25.091-52.87-22.349-9.006,1.341-8.798-.695-8.276,79.521.537,82.04.979,85.274,12.449,91.091c7.034,3.567,5.454,3.84-23.323,4.024-26.105.164-26.691.134-26.448-1.456.159-1.033,1.381-2.012,3.363-2.687c12.166-4.163,14.118-19.831,13.701-109.715-.313-67.093,1.162-62.418-19.105-60.496-19.359,1.838-33.362,9.135-41.996,21.887-3.805,5.613-5.802,6.89-5.802,3.696c0-2.161,6.373-30.134,7.471-32.771l.77-1.863h68.707c64.594,0,68.752.084,69.467,1.451Zm148.909,13.04c6.026,24.356,5.589,29.13-1.654,18.008-12.533-19.249-24.262-23.397-67.853-23.989l-28.772-.392v72.388l26.701-.442c39.691-.666,43.323-1.749,49.999-14.918c4.6-9.081,4.824-8.177,5.072,20.407.243,28.032-.189,30.173-4.237,21.043-5.827-13.144-16.204-16.473-52.999-16.994l-24.734-.348.432,34.232c.636,50.138.532,49.924,24.356,50.963c40.332,1.764,68.831-6.955,82.641-25.275c4.829-6.403,7.024-7.461,7.024-3.388c0,2.752-7.844,33.149-9.22,35.742-1.267,2.379-140.633,2.23-140.633-.154c0-.959,1.396-2.538,3.472-3.934c10.382-6.975,11.664-18.594,11.252-102.094-.323-64.852-.119-62.691-6.518-69.209-6.448-6.567-10.437-6.175,59.865-5.931l62.329.209l3.477,14.078ZM435.153,653.231c3.602,10.894,4.481,12.777,6.398,13.706c3.686,1.793,2.533,2.648-3.572,2.648-5.459,0-7.576-1.023-4.53-2.196c1.297-.497,1.187-1.639-.596-6.289-1.088-2.841-8.271-3.457-9.652-.83-1.903,3.636-1.937,6.597-.084,7.079c3.194.835.805,2.235-3.815,2.235-4.779,0-6.07-1.361-2.757-2.906c1.719-.805,5.191-8.698,8.639-19.637c1.277-4.049,2.976-6.07,5.365-6.378.238-.03,2.31,5.623,4.605,12.568ZM283.164,643.42c.01.954.238,2.578.512,3.602.745,2.792-1.48,2.35-3.174-.626-1.878-3.294-6.806-3.602-8.211-.512-1.356,2.971.268,5.132,5.052,6.721c5.276,1.754,7.466,4.471,7.466,9.265c0,6.1-5.598,10.01-11.113,7.754-1.401-.571-3.105-1.108-3.79-1.197-1.54-.199-1.654-.527-1.654-4.64c0-3.979,2.017-4.61,2.767-.864c1.008,5.042,7.799,6.513,9.796,2.121c1.321-2.896-.825-5.757-5.981-7.973-6.88-2.961-8.952-9.205-4.521-13.631c2.871-2.871,12.836-2.886,12.851-.02Zm33.978,1.897c6.766,7.253,5.872,17.878-1.898,22.618-13.129,8.008-27.928-7.352-19.349-20.084c5.146-7.64,15.35-8.857,21.246-2.533Zm31.202-1.688c6.786,5.052,3.11,13.264-6.344,14.173l-4.203.402v4.054c0,3.567.253,4.153,2.071,4.843c3.795,1.446,2.235,2.484-3.726,2.484-5.777,0-8.276-1.644-4.143-2.722c1.55-.407,1.659-1.133,1.659-11.296v-10.859l-2.121-.805c-4.277-1.629-1.237-2.668,6.771-2.315c6.17.268,8.211.686,10.035,2.042Zm21.743-.954c0,.69-.735,1.242-1.654,1.242-1.475,0-1.659.551-1.659,4.968v4.968h14.078v-4.63c0-3.934-.248-4.694-1.659-5.062-3.979-1.043-1.674-2.727,3.726-2.727c5.405,0,7.705,1.684,3.726,2.727-1.55.402-1.654,1.128-1.654,11.291v10.864l2.121.805c3.452,1.311,1.47,2.464-4.242,2.464-5.355,0-7.635-1.689-3.676-2.722c1.431-.373,1.659-1.133,1.659-5.479v-5.047h-14.078v5.286c0,4.59.219,5.345,1.659,5.718c3.785.994,1.47,2.245-4.143,2.245-4.6,0-5.792-.258-5.792-1.242c0-.69.735-1.242,1.654-1.242c1.575,0,1.654-.551,1.654-11.257c0-10.556-.099-11.281-1.654-11.684-4.133-1.083-1.639-2.727,4.138-2.727c4.6,0,5.797.258,5.797,1.242Zm37.883.208c.199.606-.373,1.033-1.386,1.033-1.664,0-1.724.397-1.724,11.594c0,11.038.079,11.589,1.654,11.589.924,0,1.659.551,1.659,1.242c0,.994-1.252,1.242-6.279,1.242-6.051,0-8.683-1.614-3.8-2.335c1.749-.258,1.798-.591,1.798-11.798v-11.535h-2.071c-2.032,0-2.643-.805-1.48-1.962c1.013-1.018,11.257-.199,11.629.929Zm-106.163,3.006c-7.983,7.983-1.242,24.277,8.803,21.271c7.605-2.28,8.837-16.011,1.922-21.445-3.179-2.504-8.132-2.424-10.725.174Zm36.333-.835c-1.431,3.721.06,10.04,2.434,10.313c2.911.333,6.329-2.598,6.329-5.42c0-4.059-7.481-8.236-8.763-4.893Zm89.457,3.418c-.348.909-1.133,2.911-1.749,4.446s-1.118,2.936-1.118,3.105c0,.174,1.515.313,3.368.313c3.711,0,3.651.363,1.157-6.622-.909-2.548-1.113-2.697-1.659-1.242ZM296.939,683.97c.07.06.258,1.56.417,3.338.338,3.79-1.068,4.784-2.459,1.739-1.843-4.049-7.586-4.396-8.808-.537-.82,2.583.348,4.108,4.302,5.618c6.036,2.305,8.495,4.819,8.495,8.688c0,7.198-5.007,11.093-11.386,8.862-1.709-.601-3.666-1.098-4.347-1.103-.686-.005-1.202-.477-1.157-1.048.045-.566.139-2.335.204-3.929.159-3.696,1.997-3.82,3.06-.209c1.997,6.781,11.495,5.216,9.786-1.61-.387-1.53-1.714-2.623-4.898-4.034-9.18-4.059-10.988-12.394-3.413-15.718c2.071-.909,9.101-.949,10.203-.06Zm35.424.929c1.371,5.107-.005,7.903-2.027,4.118-1.192-2.225-3.557-3.184-6.736-2.737-3.477.492-3.308,23.045.174,23.045.894,0,1.605.566,1.605,1.277c0,1.058-1.038,1.237-6.001,1.038-5.584-.229-7.978-1.535-3.969-2.166c1.61-.253,1.689-.83,1.689-11.798v-11.535h-2.896c-2.832,0-5.539,1.793-6.408,4.247-.84,2.365-1.634-.174-1.123-3.587l.532-3.557h12.359c11.654,0,12.379.094,12.802,1.654Zm52.209,1.943c.705,4.689-.02,5.241-2.583,1.967-1.724-2.201-2.658-2.668-5.36-2.668h-3.279l.233,11.386c.224,11.098.278,11.391,2.091,11.649c4.943.7,1.754,2.633-4.347,2.633s-9.289-1.932-4.347-2.633c1.813-.258,1.868-.551,2.091-11.649l.233-11.386h-3.279c-2.702,0-3.636.467-5.36,2.668-2.628,3.358-3.517,2.553-2.235-2.022l.989-3.542h24.615l.537,3.597Zm66.566-.288c.835,3.279-.353,6.612-1.361,3.835-.894-2.464-3.592-4.247-6.418-4.247h-2.896v11.535c0,11.331.03,11.54,1.863,11.798c4.108.586,1.083,1.922-4.347,1.922-5.435,0-8.46-1.336-4.347-1.922c1.828-.258,1.863-.467,1.863-11.798v-11.535h-2.876c-2.23,0-3.279.556-4.709,2.484-1.008,1.366-2.186,2.484-2.613,2.484-.695,0-.179-6.07.626-7.372.169-.268,5.723-.492,12.34-.492h12.037l.84,3.308Zm-214.347-1.655c0,.69-.735,1.242-1.659,1.242-1.575,0-1.654.551-1.654,11.594c0,11.038.079,11.589,1.654,11.589.944,0,1.659.551,1.659,1.277c0,1.058-1.038,1.237-6.006,1.038-5.514-.224-7.988-1.53-4.068-2.151c3.284-.522,3.363-23.348.079-23.348-1.639,0-2.692-1.113-1.853-1.952c1.207-1.207,11.848-.566,11.848.71Zm15.876-.124c.601.616,4.073,4.923,7.72,9.573l6.622,8.45.243-6.463c.303-7.928-.139-9.861-2.389-10.452-3.035-.795-.825-2.225,3.438-2.225c4.083,0,5.777,1.659,2.846,2.787-1.028.392-1.242,2.623-1.242,12.921c0,7.536-.318,12.444-.805,12.444-.447,0-4.64-4.809-9.314-10.685l-8.51-10.68-.233,8.793c-.219,8.092-.099,8.897,1.485,10.094c2.33,1.759,1.321,2.479-3.457,2.479-4.173,0-5.748-1.833-2.345-2.722c3.199-.84,2.315-22.945-.919-22.945-.859,0-1.565-.556-1.565-1.242c0-1.619,6.86-1.719,8.425-.124Zm98.826-.233c.298.487-.233,1.088-1.192,1.341-2.702.705-2.717,23.442-.015,23.442c1.008,0,1.585.427,1.381,1.033-.551,1.669-12.215,1.903-12.215.243c0-.81.755-1.277,2.071-1.277h2.071v-23.184h-2.071c-1.287,0-2.071-.467-2.071-1.242c0-1.495,11.132-1.828,12.041-.358Zm50.883.357c0,.69-.735,1.242-1.654,1.242-1.56,0-1.659.551-1.659,9.578c0,10.546.497,12.21,3.989,13.427c7.119,2.484,9.597-.69,9.95-12.732l.278-9.429-2.191-.835c-3.323-1.262-1.699-2.494,3.294-2.494c4.461,0,6.97,1.396,3.929,2.191-1.441.378-1.669,1.426-2.116,9.761-.72,13.467-4.317,18.077-12.965,16.617-7.178-1.212-9.121-5.022-9.13-17.913-.005-7.407-.129-8.008-1.744-8.43-3.388-.889-.571-2.225,4.689-2.225c4.188,0,5.33.268,5.33,1.242Zm77.738.621c2.399,6.418,1.411,7.511-2.812,3.105-2.002-2.091-3.01-2.484-6.403-2.484h-4.029l.248,4.764c.298,5.638,3.76,7.541,5.757,3.159c1.565-3.433,2.36-2.474,2.36,2.841c0,4.918-1.043,6.552-2.086,3.264-1.133-3.567-5.738-1.818-6.036,2.295-.532,7.327,6.522,9.935,11.848,4.376c3.994-4.168,5.281-3.502,3.209,1.664l-1.341,3.348-10.869-.229c-9.707-.204-14.227-1.306-8.832-2.151c2.593-.407,2.623-22.414.03-23.089-.909-.238-1.654-.949-1.654-1.58c0-2.275,19.746-1.59,20.611.715Z" fill="#052a49"/></svg>
